<?xml version="1.0" encoding="utf-8"?>
<!-- Generator: Adobe Illustrator 18.0.0, SVG Export Plug-In . SVG Version: 6.00 Build 0)  -->
<!DOCTYPE svg PUBLIC "-//W3C//DTD SVG 1.1//EN" "http://www.w3.org/Graphics/SVG/1.1/DTD/svg11.dtd">
<svg version="1.1" id="Layer_1" xmlns="http://www.w3.org/2000/svg" xmlns:xlink="http://www.w3.org/1999/xlink" x="0px" y="0px"
	 viewBox="0 0 1500 500" enable-background="new 0 0 1500 500" xml:space="preserve">
<g>
	<path fill="#CC8383" stroke="#11110F" stroke-miterlimit="10" d="M289.2,220.1H162.9c-3.2,0-5.9,2.6-5.9,5.9v61.8
		c0,3.2,2.6,5.9,5.9,5.9h49.2v76.8c0,0-11.1,3.8-41.6,3.8c-36,0-86.4-13.2-86.4-123.9S136.5,125,185.8,125
		c42.5,0,60.9,7.6,72.7,11.1c3.8,1.2,7-2.6,7-5.9l14.1-59.5c0-1.5-0.6-3.2-2.3-4.7c-4.4-3.5-33.4-19.6-106.6-19.6
		C86.4,46.4,0,82.1,0,254.4s99,198,182.2,198c69.1,0,110.7-29.6,110.7-29.6c1.8-0.9,2.1-3.2,2.1-4.4V226
		C295,222.8,292.4,220.1,289.2,220.1z M939,68.1c0-3.2-2.6-5.9-5.9-5.9h-70.9c-3.2,0-5.9,2.6-5.9,5.9v137.4H745.6V68.1
		c0-3.2-2.6-5.9-5.9-5.9h-70.9c-3.2,0-5.9,2.6-5.9,5.9v371.8c0,3.2,2.6,5.9,5.9,5.9h70.9c3.2,0,5.9-2.6,5.9-5.9V280.8h110.7
		L856,439.9c0,3.2,2.6,5.9,5.9,5.9h71.2c3.2,0,5.9-2.6,5.9-5.9L939,68.1L939,68.1z M423,117.6c0-25.5-20.5-46.3-45.7-46.3
		s-45.7,20.8-45.7,46.3s20.5,46.3,45.7,46.3S423,143.1,423,117.6z M417.2,361.3V189.9c0-3.2-2.6-5.9-5.9-5.9h-70.9
		c-3.2,0-6.2,3.2-6.2,6.7v245.8c0,7.3,4.4,9.4,10.3,9.4h63.9c7,0,8.8-3.5,8.8-9.4L417.2,361.3L417.2,361.3z M1210.5,183.8h-70.6
		c-3.2,0-5.9,2.6-5.9,5.9v182.2c0,0-17.9,13.2-43.4,13.2s-32.2-11.4-32.2-36.3V189.9c0-3.2-2.6-5.9-5.9-5.9H981
		c-3.2,0-5.9,2.6-5.9,5.9V361c0,73.8,41.3,92,97.9,92c46.6,0,84.1-25.8,84.1-25.8s1.8,13.5,2.6,15.2c0.9,1.5,2.9,3.2,5.3,3.2
		l45.4-0.3c3.2,0,5.9-2.6,5.9-5.9V189.9C1216.4,186.7,1213.8,183.8,1210.5,183.8z M1372.9,385.4c-24.3-0.9-41-11.7-41-11.7V255.9
		c0,0,16.4-10,36.3-11.7c25.5-2.3,49.8,5.3,49.8,65.9C1418,373.9,1407.1,386.5,1372.9,385.4z M1400.7,175.9
		c-40.1,0-67.4,17.9-67.4,17.9v-126c0-3.2-2.6-5.9-5.9-5.9h-71.2c-3.2,0-5.9,2.6-5.9,5.9v371.8c0,3.2,2.6,5.9,5.9,5.9h49.5
		c2.3,0,3.8-1.2,5.3-3.2c1.2-2.1,2.9-17,2.9-17s29,27.5,84.4,27.5c64.7,0,102-32.8,102-147.4S1440.8,175.9,1400.7,175.9z
		 M621.7,183.2h-53.3v-70.3c0-2.6-1.5-4.1-4.4-4.1h-72.7c-2.9,0-4.4,1.2-4.4,3.8v72.7c0,0-36.3,8.8-39,9.4c-2.3,0.6-4.4,2.9-4.4,5.6
		V246c0,3.2,2.6,5.9,5.9,5.9h37.2v109.9c0,81.7,57.4,89.6,96.1,89.6c17.6,0,38.7-5.6,42.2-7c2.1-0.9,3.2-2.9,3.2-5.3v-50.4
		c0-3.2-2.6-5.9-5.9-5.9c-3.2,0-11.1,1.2-19.3,1.2c-26.1,0-35.2-12.3-35.2-27.8c0-15.8,0-104.6,0-104.6H621c3.2,0,5.9-2.6,5.9-5.9
		v-56.3C627.5,185.8,624.9,183.2,621.7,183.2z"/>
</g>
</svg>
