<?xml version="1.0" encoding="utf-8"?>
<!-- Generator: Adobe Illustrator 18.0.0, SVG Export Plug-In . SVG Version: 6.00 Build 0)  -->
<!DOCTYPE svg PUBLIC "-//W3C//DTD SVG 1.1//EN" "http://www.w3.org/Graphics/SVG/1.1/DTD/svg11.dtd">
<svg version="1.1" id="Layer_1" xmlns="http://www.w3.org/2000/svg" xmlns:xlink="http://www.w3.org/1999/xlink" x="0px" y="0px"
	 viewBox="0 0 1500 500" enable-background="new 0 0 1500 500" xml:space="preserve">
<g>
	<path fill="#F15F25" stroke="#222222" stroke-miterlimit="10" d="M9.7,370.4v-167H218v-9.7H9.7V41.4h221.8v-9.7H0v348.6h233.2v-9.7
		H9.7V370.4z M421.3,129.3L334.9,243l-84.4-113.7h-12.6l91.4,121L228.8,380.4h11.7l94.3-122.5l94.6,122.5h12.3L341.3,250.6l91.7-121
		h-11.7V129.3z M471.1,466.2V310.1h0.9c5.9,22.9,17.3,41,34.6,54.8c17.3,13.8,39.3,20.8,65.9,20.8c17.3,0,32.5-3.5,46-10.5
		c13.5-7,24.6-16.4,33.4-28.4c9.1-12,15.8-26.1,20.5-41.9s7-32.8,7-50.4c0-18.8-2.3-36.3-7.3-52.1s-12-29.9-21.1-41.6
		c-9.1-11.7-20.5-20.8-33.7-27.2s-28.1-9.7-44.5-9.7c-12.6,0-24.6,1.8-35.4,5.6c-10.8,3.8-20.5,9.1-29,15.8
		c-8.5,6.7-15.8,14.9-22,24c-6.2,9.4-10.8,19.3-14.1,30.5h-0.9v-70.3h-9.7v336.9H471.1L471.1,466.2z M572.5,376.3
		c-30.5,0-55.1-10.5-73.8-31.3c-18.5-21.1-27.8-51.3-27.8-90.5c0-16.4,2.3-31.6,6.7-46.3s11.1-27.5,19.6-38.7
		c8.5-11.1,19.3-19.9,31.9-26.4s27-9.7,43.1-9.7c16.4,0,30.5,3.2,42.8,9.7c12.3,6.4,22.3,15.2,30.2,26.7c7.9,11.4,14.1,24,18.2,38.7
		c4.1,14.6,6.2,29.9,6.2,46c0,14.6-1.8,29.3-5.6,43.7s-9.4,27.5-17.3,39c-7.9,11.4-17.9,21.1-29.9,28.4
		C604.4,372.8,589.7,376.3,572.5,376.3L572.5,376.3L572.5,376.3z M733.3,380.4V238.3c0-13.8,2.1-27,5.9-40.1s10-24.6,18.2-34.3
		c8.2-10,18.5-17.9,31.1-23.4c12.6-5.6,27.5-7.9,44.5-7v-9.7c-14.9-0.3-28.1,1.2-39.3,5c-11.1,3.5-20.8,8.5-29,14.6
		c-8.2,6.2-14.6,13.5-19.6,21.7c-5,8.2-8.5,17.3-10.8,26.7h-0.9v-62.4h-9.7v251.1H733.3L733.3,380.4z M844.9,256.7h209.8
		c0.6-17.3-1.2-34-5-49.8c-4.1-15.8-10.5-30.2-19.6-42.5c-9.1-12.3-20.5-22.3-34.6-29.9c-14.1-7.6-31.1-11.1-50.4-11.1
		c-14.1,0-27.5,2.9-41,8.8c-13.5,5.9-25.2,14.4-35.2,25.5s-18.2,24.9-24.3,41.3c-6.2,16.4-9.4,34.9-9.4,55.7
		c0,18.5,2.1,35.7,6.4,51.9c4.1,16.1,10.8,30.2,19.6,41.9c8.8,12,20.2,21.1,34,27.5c13.8,6.4,30.5,9.7,50.1,9.4
		c28.7,0,52.7-7.9,72.4-24c19.6-16.1,31.1-38.7,34.6-68h-9.7c-4.1,27.5-14.9,48.3-32.5,62.1c-17.6,13.8-39.3,20.8-65.6,20.8
		c-17.9,0-33.1-3.2-45.4-9.4c-12.3-6.2-22.6-14.6-30.2-25.5c-7.9-10.8-13.5-23.4-17.3-37.8C847.3,289.3,845.2,273.7,844.9,256.7
		L844.9,256.7L844.9,256.7z M1045,247.1H844.9c0.9-17.6,4.1-33.4,9.7-47.5c5.6-14.1,12.9-26.1,21.7-35.7c9.1-10,19.3-17.6,31.3-22.6
		c12-5.3,24.6-7.9,38.4-7.9c16.4,0,30.5,2.9,43.1,9.1c12.3,6.2,22.6,14.4,31.1,24.6c8.2,10.5,14.6,22.6,18.8,36.3
		C1043,217.2,1045,231.8,1045,247.1L1045,247.1L1045,247.1z M1257.4,203.4h9.7c0-28.1-8.2-48.3-24.3-60.9s-38.4-19-66.5-19
		c-15.5,0-28.7,2.1-39.6,5.9s-19.6,9.1-26.4,15.2s-11.7,12.9-14.6,20.5s-4.4,14.6-4.4,21.4c0,13.8,2.3,24.6,7.3,32.8
		s12.6,14.4,22.9,19c7,3.2,15.2,6.2,24.3,8.8c9.1,2.6,19.6,5.3,31.6,8.2c10.8,2.6,21.4,5.3,31.6,7.9c10.5,2.6,19.6,6.2,27.5,10.5
		c7.9,4.4,14.4,10,19.6,16.7c5,6.7,7.6,15.8,7.6,27c0,10.8-2.6,19.9-7.6,27.2c-5,7.6-11.4,13.5-19.3,18.2s-16.4,8.2-26.1,10.3
		c-9.7,2.1-19,3.2-28.1,3.2c-29.6,0-52.4-6.4-68-19.6c-15.5-13.2-23.7-34-23.7-62.1h-9.7c0,31.6,8.5,54.8,25.5,69.4s42.5,22,75.9,22
		c10.8,0,21.7-1.2,32.5-3.5c10.8-2.3,20.8-6.4,29.3-12s15.5-12.6,21.1-21.4c5.3-8.8,7.9-19.6,7.9-32.2c0-12-2.3-21.7-7-29.3
		c-4.7-7.6-10.8-13.8-18.5-18.5c-7.6-5-16.4-8.8-25.8-11.4c-9.7-2.6-19.3-5.6-29-7.9c-13.8-3.5-25.5-6.7-35.7-9.4
		c-10.3-2.6-19.6-5.6-28.4-9.4c-8.5-3.5-15.2-8.8-20.2-15.2c-5-6.7-7.6-16.1-7.6-28.4c0-2.3,0.6-6.4,2.1-12.3s4.4-11.7,9.4-17.9
		c5-6.2,12.3-11.4,22.6-16.1s24-7,41.6-7c12,0,23.1,1.2,32.8,3.8c10,2.6,18.5,6.7,25.5,12.3c7,5.6,12.6,12.9,16.7,21.7
		C1256,180.6,1257.4,190.8,1257.4,203.4L1257.4,203.4L1257.4,203.4z M1483.3,203.4h9.7c0-28.1-8.2-48.3-24.3-60.9
		c-16.4-12.6-38.4-19-66.5-19c-15.5,0-28.7,2.1-39.6,5.9c-10.8,3.8-19.6,9.1-26.4,15.2c-6.7,6.2-11.7,12.9-14.6,20.5
		s-4.4,14.6-4.4,21.4c0,13.8,2.3,24.6,7.3,32.8c5,8.2,12.6,14.4,22.9,19c7,3.2,15.2,6.2,24.3,8.8s19.6,5.3,31.6,8.2
		c10.8,2.6,21.4,5.3,31.6,7.9c10.5,2.6,19.6,6.2,27.5,10.5c7.9,4.4,14.4,10,19.6,16.7c5,6.7,7.6,15.8,7.6,27
		c0,10.8-2.6,19.9-7.6,27.2c-5,7.6-11.4,13.5-19.3,18.2c-7.9,4.7-16.4,8.2-26.1,10.3c-9.7,2.1-19,3.2-28.1,3.2
		c-29.6,0-52.4-6.4-68-19.6c-15.8-13.2-23.7-34-23.7-62.1h-9.7c0,31.6,8.5,54.8,25.5,69.4s42.5,22,75.9,22c10.8,0,21.7-1.2,32.5-3.5
		c10.8-2.3,20.8-6.4,29.3-12c8.5-5.6,15.5-12.6,21.1-21.4c5.3-8.8,7.9-19.6,7.9-32.2c0-12-2.3-21.7-7-29.3
		c-4.7-7.6-10.8-13.8-18.5-18.5c-7.6-5-16.4-8.8-25.8-11.4c-9.7-2.6-19.3-5.6-29-7.9c-13.8-3.5-25.5-6.7-35.7-9.4
		c-10.3-2.6-19.6-5.6-28.4-9.4c-8.5-3.5-15.2-8.8-20.2-15.2c-5-6.7-7.6-16.1-7.6-28.4c0-2.3,0.6-6.4,2.1-12.3s4.4-11.7,9.4-17.9
		s12.3-11.4,22.6-16.1c10-4.7,24-7,41.6-7c12,0,23.1,1.2,32.8,3.8c10,2.6,18.5,6.7,25.5,12.3c7,5.6,12.6,12.9,16.7,21.7
		C1481.5,180.3,1483.3,190.8,1483.3,203.4L1483.3,203.4L1483.3,203.4z"/>
</g>
</svg>
